<?xml version="1.0" encoding="UTF-8"?>
<svg id="Layer_1" data-name="Layer 1" xmlns="http://www.w3.org/2000/svg" viewBox="0 0 106.23 135.85">
  <defs>
    <style>
      .cls-1 {
        fill: none;
        stroke:rgb(41, 39, 39);
        stroke-linecap: round;
        stroke-miterlimit: 10;
        stroke-width: 5px;
      }

      .cls-2 {
        fill:rgb(41, 39, 39);
      }

      .cls-3 {
        fill: #fff;
      }
    </style>
  </defs>
  <g>
    <path class="cls-3" d="M12,133.35c-5.24,0-9.5-4.26-9.5-9.5V12C2.5,6.76,6.76,2.5,12,2.5h90.23c.83,0,1.5.67,1.5,1.5v127.85c0,.83-.67,1.5-1.5,1.5H12Z"/>
    <path class="cls-2" d="M101.23,5v125.85H12c-3.86,0-7-3.14-7-7V12c0-3.86,3.14-7,7-7h89.23M102.23,0H12C5.37,0,0,5.37,0,12v111.85c0,6.63,5.37,12,12,12h90.23c2.21,0,4-1.79,4-4V4c0-2.21-1.79-4-4-4h0Z"/>
  </g>
  <g>
    <rect class="cls-3" x="34.2" y="17.54" rx="2.01" ry="2.01"/>
    <path class="cls-2" d="M86.86,20.04v11.28h-50.15v-11.28h50.15M87.35,15.04h-51.14c-2.49,0-4.51,2.02-4.51,4.51v12.27c0,2.49,2.02,4.51,4.51,4.51h51.14c2.49,0,4.51-2.02,4.51-4.51v-12.27c0-2.49-2.02-4.51-4.51-4.51h0Z"/>
  </g>
  <line class="cls-1" x1="18.76" y1="17.49" x2="19.56" y2="118.36"/>
</svg>